<svg xmlns="http://www.w3.org/2000/svg" viewBox="0 0 1250 1500" font-family="'Helvetica Neue', Arial, sans-serif">
  <defs>
    <marker id="arrow" markerWidth="10" markerHeight="7" refX="10" refY="3.5" orient="auto">
      <polygon points="0 0, 10 3.5, 0 7" fill="#c0392b"/>
    </marker>
    <linearGradient id="corten" x1="0%" y1="0%" x2="100%" y2="100%">
      <stop offset="0%" style="stop-color:#b5703c"/><stop offset="100%" style="stop-color:#c48040"/>
    </linearGradient>
  </defs>

  <rect width="1250" height="1500" fill="#f7f4ef"/>

  <text x="625" y="28" text-anchor="middle" font-size="20" font-weight="bold" fill="#2c3e50">Havn Garden -- Planting Plan</text>
  <text x="625" y="46" text-anchor="middle" font-size="11" fill="#7f8c8d">Phase 2 + Phase 3 combined | North end = full sun | South end = afternoon shade from house</text>
  <text x="625" y="60" text-anchor="middle" font-size="10" fill="#27ae60" font-style="italic">Dashed borders = Phase 2 temporary crops (planted W16, removed before W21)</text>

  <!-- North arrow (upper-right, ~NE) -->
  <g transform="translate(1160, 80)">
    <line x1="0" y1="25" x2="20" y2="-30" stroke="#c0392b" stroke-width="2.5" marker-end="url(#arrow)"/>
    <text x="24" y="-26" font-size="15" font-weight="bold" fill="#c0392b">N</text>
  </g>

  <!-- ============================================================ -->
  <!-- BED A: FAMILY BED (230 x 120 cm)                              -->
  <!-- Scale: 2.7px/cm                                                -->
  <!-- North (top) = L=0 = fence, full sun                            -->
  <!-- South (bottom) = L=230 = house side, afternoon shade           -->
  <!-- West (left) = W=0, East (right) = W=120                       -->
  <!-- ============================================================ -->
  <g transform="translate(430, 65)">
    <text x="162" y="-8" text-anchor="middle" font-size="15" font-weight="bold" fill="#8b5e3c">BED A: "Family Bed"</text>
    <text x="162" y="8" text-anchor="middle" font-size="10" fill="#8b5e3c">230 x 120 x 40 cm</text>

    <!-- Bed frame -->
    <rect x="0" y="16" width="324" height="621" rx="5" fill="url(#corten)" stroke="#8b5e3c" stroke-width="3"/>

    <!-- NORTH ZONE: L=0-120 = y=16 to y=340 (324px) -->
    <rect x="4" y="20" width="316" height="320" rx="3" fill="#fdf2e0"/>
    <!-- MIDDLE ZONE: L=120-170 = y=340 to y=475 (135px) -->
    <rect x="4" y="340" width="316" height="135" rx="3" fill="#e8f8f0"/>
    <!-- BUFFER: L=170-180 = y=475 to y=502 (27px) -->
    <rect x="4" y="475" width="316" height="27" rx="2" fill="#f0e6d3" opacity="0.4"/>
    <!-- SOUTH ZONE: L=180-230 = y=502 to y=637 (135px) -->
    <rect x="4" y="502" width="316" height="131" rx="3" fill="#fbeae8"/>

    <!-- Zone labels -->
    <text x="10" y="35" font-size="9" font-weight="bold" fill="#8b5e3c" opacity="0.7">NORTH: Warm Crops (full sun, fence side)</text>
    <text x="10" y="47" font-size="7" fill="#8b5e3c" opacity="0.5">Reservoir underneath | Lean-to trellis on east side (outward)</text>
    <text x="10" y="355" font-size="9" font-weight="bold" fill="#1e8449" opacity="0.7">MIDDLE: Herbs, Salad, Leeks &amp; Broccoli</text>
    <text x="162" y="490" text-anchor="middle" font-size="7" fill="#8b7355" font-style="italic">~ buffer ~</text>
    <text x="10" y="517" font-size="9" font-weight="bold" fill="#922b21" opacity="0.7">SOUTH: Raspberries + Chives (perennial)</text>
    <text x="10" y="529" font-size="7" fill="#922b21" opacity="0.5">Afternoon shade from house | Perennial</text>

    <!-- N/S labels -->
    <text x="162" y="14" text-anchor="middle" font-size="8" fill="#7f8c8d">NORTH (fence side, full sun)</text>
    <text x="162" y="647" text-anchor="middle" font-size="8" fill="#7f8c8d">SOUTH (house side, afternoon shade ~14:00)</text>

    <!-- Sun indicator top -->
    <text x="300" y="35" text-anchor="end" font-size="10" fill="#f39c12">&#9728; full sun</text>
    <!-- Shade indicator bottom -->
    <text x="300" y="620" text-anchor="end" font-size="9" fill="#7f8c8d" font-style="italic">&#9684; shade ~14:00</text>

    <!-- Lean-to trellis on EAST side (extends outward from bed) -->
    <rect x="310" y="30" width="50" height="220" rx="4" fill="#27ae60" opacity="0.08" stroke="#27ae60" stroke-width="2" stroke-dasharray="8,4"/>
    <text x="335" y="145" text-anchor="middle" font-size="8" fill="#27ae60" font-weight="bold" transform="rotate(90,335,145)">LEAN-TO TRELLIS (east, outward)</text>

    <!-- Reservoir dam line -->
    <line x1="6" y1="340" x2="318" y2="340" stroke="#2980b9" stroke-width="2" stroke-dasharray="6,4"/>
    <text x="162" y="337" text-anchor="middle" font-size="8" fill="#2980b9">RESERVOIR LINER DAM</text>

    <!-- ===== NORTH ZONE (top): Warm Crops ===== -->

    <!-- PEAS (Phase 2, L=0-30, at trellis base = east side) -->
    <rect x="240" y="22" width="76" height="82" rx="6" fill="#8bc34a" opacity="0.3" stroke="#558b2f" stroke-width="2" stroke-dasharray="6,3"/>
    <text x="278" y="52" text-anchor="middle" font-size="10" fill="#33691e" font-weight="bold">PEA</text>
    <text x="278" y="66" text-anchor="middle" font-size="7" fill="#33691e">Kelvedon</text>
    <text x="278" y="78" text-anchor="middle" font-size="6" fill="#558b2f" font-style="italic">Phase 2 only</text>
    <text x="278" y="90" text-anchor="middle" font-size="6" fill="#558b2f" font-style="italic">remove W21</text>

    <!-- CUC-1 label (Phase 3, replaces peas at east edge) -->
    <text x="330" y="55" font-size="7" fill="#1b7a3d" font-style="italic">CUC-1</text>
    <text x="330" y="66" font-size="6" fill="#1b7a3d" font-style="italic">(W21)</text>

    <!-- CUC-2 (east edge, Phase 3, lower position) -->
    <path d="M260,176 Q256,170 280,170 L314,172 Q322,174 320,195 L318,236 Q316,248 300,246 L272,244 Q258,242 260,228 Z"
          fill="#27ae60" opacity="0.3" stroke="#27ae60" stroke-width="1"/>
    <text x="290" y="206" text-anchor="middle" font-size="10" fill="#1b7a3d" font-weight="bold">CUC</text>
    <text x="290" y="220" text-anchor="middle" font-size="7" fill="#1b7a3d">&#8594; trellis</text>
    <text x="290" y="232" text-anchor="middle" font-size="6" fill="#1b7a3d" font-style="italic">(W21)</text>

    <!-- BOR-1 (left side, around L=40) -->
    <path d="M60,92 Q56,86 86,86 L150,88 Q168,90 166,114 L164,146 Q162,160 144,158 L76,156 Q58,154 60,138 Z"
          fill="#8e44ad" opacity="0.25" stroke="#8e44ad" stroke-width="1"/>
    <text x="114" y="124" text-anchor="middle" font-size="10" fill="#6c3483" font-weight="bold">BOR</text>
    <text x="114" y="138" text-anchor="middle" font-size="7" fill="#6c3483">borage</text>

    <!-- CAL-1 (Phase 2, L=40 W=90 -> y=124, x=243) -->
    <rect x="220" y="92" width="40" height="40" rx="6" fill="#f5b041" opacity="0.25" stroke="#f5b041" stroke-width="1.5" stroke-dasharray="6,3"/>
    <text x="240" y="112" text-anchor="middle" font-size="7" fill="#b7950b" font-weight="bold">CAL</text>
    <text x="240" y="124" text-anchor="middle" font-size="5" fill="#b7950b" font-style="italic">Phase 2</text>

    <!-- KALE (Phase 2, center, L=65 W=60 -> y=191, x=162) -->
    <rect x="130" y="160" width="64" height="50" rx="6" fill="#4caf50" opacity="0.25" stroke="#2e7d32" stroke-width="2" stroke-dasharray="6,3"/>
    <text x="162" y="180" text-anchor="middle" font-size="9" fill="#1b5e20" font-weight="bold">KALE</text>
    <text x="162" y="192" text-anchor="middle" font-size="6" fill="#2e7d32" font-style="italic">Phase 2 only</text>
    <text x="162" y="202" text-anchor="middle" font-size="6" fill="#2e7d32" font-style="italic">remove W21</text>

    <!-- TOM (center, L=55 -> y=16+55*2.7=164.5) -->
    <path d="M95,138 Q90,132 130,132 L210,134 Q235,136 232,160 L230,208 Q228,226 210,224 L118,222 Q92,220 94,204 Z"
          fill="#e74c3c" opacity="0.25" stroke="#e74c3c" stroke-width="1.5"/>
    <text x="164" y="172" text-anchor="middle" font-size="12" fill="#a93226" font-weight="bold">TOM</text>
    <text x="164" y="188" text-anchor="middle" font-size="8" fill="#a93226">tomato [staked]</text>
    <text x="164" y="200" text-anchor="middle" font-size="6" fill="#a93226" font-style="italic">(W21)</text>

    <!-- BAS-1 (left, L=60 -> y=178) -->
    <path d="M40,164 Q36,158 66,158 L130,160 Q146,162 144,182 L142,210 Q140,224 122,222 L56,220 Q38,218 40,202 Z"
          fill="#2ecc71" opacity="0.3" stroke="#2ecc71" stroke-width="1"/>
    <text x="92" y="194" text-anchor="middle" font-size="9" fill="#1a7a3d" font-weight="bold">BAS</text>

    <!-- BAS-2 (right, L=60) -->
    <path d="M188,164 Q184,158 212,158 L270,160 Q286,162 284,182 L282,210 Q280,224 262,222 L204,220 Q186,218 188,202 Z"
          fill="#2ecc71" opacity="0.3" stroke="#2ecc71" stroke-width="1"/>
    <text x="236" y="194" text-anchor="middle" font-size="9" fill="#1a7a3d" font-weight="bold">BAS</text>

    <!-- PEP (center, L=85 -> y=16+85*2.7=245.5) -->
    <path d="M95,226 Q90,222 120,222 L210,224 Q228,226 226,246 L224,286 Q222,302 205,300 L112,298 Q92,296 94,280 Z"
          fill="#e67e22" opacity="0.25" stroke="#e67e22" stroke-width="1"/>
    <text x="162" y="260" text-anchor="middle" font-size="11" fill="#c76a0a" font-weight="bold">PEP</text>
    <text x="162" y="274" text-anchor="middle" font-size="7" fill="#c76a0a">pepper</text>
    <text x="162" y="286" text-anchor="middle" font-size="6" fill="#c76a0a" font-style="italic">(W21)</text>

    <!-- DIL-1 (right, L=100 -> y=16+100*2.7=286) -->
    <path d="M200,290 Q196,286 225,286 L305,288 Q318,290 316,308 L314,330 Q312,338 295,336 L218,334 Q198,332 200,318 Z"
          fill="#1abc9c" opacity="0.3" stroke="#1abc9c" stroke-width="1"/>
    <text x="258" y="316" text-anchor="middle" font-size="10" fill="#0e8c6e" font-weight="bold">DIL</text>

    <!-- BEANS strip (west edge, L=20-80) -->
    <path d="M8,60 Q6,54 18,54 L38,56 Q48,58 46,70 L44,272 Q42,282 34,280 L18,278 Q8,276 10,264 Z"
          fill="#795548" opacity="0.3" stroke="#795548" stroke-width="1"/>
    <text x="28" y="170" text-anchor="middle" font-size="8" fill="#4e342e" font-weight="bold" transform="rotate(-90,28,170)">BUSH BEANS (x6)</text>

    <!-- ===== MIDDLE ZONE: Herbs, Salad, Leeks, Broccoli ===== -->

    <!-- Lettuce broadcast (L=125-140 -> y=353-394) -->
    <path d="M10,356 Q8,352 50,352 L140,354 Q155,356 153,370 L150,394 Q148,400 132,398 L26,396 Q10,394 12,380 Z"
          fill="#82e0aa" opacity="0.35" stroke="#27ae60" stroke-width="1"/>
    <text x="82" y="380" text-anchor="middle" font-size="10" fill="#1e8449" font-weight="bold">LETTUCE</text>

    <!-- Spring onion row (L=130, W=60-110 -> y=367, x=162-297) -->
    <path d="M162,358 Q158,354 190,354 L300,356 Q314,358 312,370 L310,390 Q308,398 294,396 L180,394 Q162,392 164,380 Z"
          fill="#f39c12" opacity="0.25" stroke="#f39c12" stroke-width="1"/>
    <text x="238" y="380" text-anchor="middle" font-size="9" fill="#b7780c" font-weight="bold">SPRING ONIONS</text>

    <!-- Radish succession slot (L=125-145, W=80-100 -> y=353-407, x=216-270) -->
    <rect x="216" y="396" width="54" height="30" rx="6" fill="none" stroke="#c0392b" stroke-width="1" stroke-dasharray="4,2"/>
    <text x="243" y="414" text-anchor="middle" font-size="7" fill="#c0392b">RAD succession</text>

    <!-- BOR-2 (L=155, W=30 -> y=434, x=81) -->
    <path d="M10,418 Q8,414 38,414 L100,416 Q116,418 114,436 L112,458 Q110,468 94,466 L28,464 Q10,462 12,448 Z"
          fill="#8e44ad" opacity="0.2" stroke="#8e44ad" stroke-width="1"/>
    <text x="62" y="444" text-anchor="middle" font-size="9" fill="#6c3483" font-weight="bold">BOR</text>

    <!-- DIL-2 (L=140, W=100 -> y=394, x=270) -->
    <path d="M260,396 Q256,392 280,392 L312,394 Q320,396 318,412 L316,430 Q314,438 300,436 L270,434 Q258,432 260,418 Z"
          fill="#1abc9c" opacity="0.25" stroke="#1abc9c" stroke-width="0.8"/>
    <text x="290" y="418" text-anchor="middle" font-size="8" fill="#0e8c6e" font-weight="bold">DIL</text>

    <!-- LEK x3 (L=145-165, W=60 -> y=407-461, x=162) -->
    <path d="M130,404 Q126,400 152,400 L192,402 Q206,404 204,422 L202,460 Q200,470 184,468 L144,466 Q128,464 130,448 Z"
          fill="#1a5276" opacity="0.3" stroke="#1a5276" stroke-width="1"/>
    <text x="168" y="430" text-anchor="middle" font-size="9" fill="#154360" font-weight="bold">LEK</text>
    <text x="168" y="444" text-anchor="middle" font-size="7" fill="#154360">x3 leeks</text>
    <text x="168" y="456" text-anchor="middle" font-size="6" fill="#154360" font-style="italic">(W21)</text>

    <!-- BRC (L=150, W=100 -> y=421, x=270) -->
    <path d="M240,420 Q236,416 262,416 L312,418 Q320,420 318,442 L316,466 Q314,474 298,472 L252,470 Q238,468 240,454 Z"
          fill="#196f3d" opacity="0.25" stroke="#196f3d" stroke-width="1.5"/>
    <text x="280" y="444" text-anchor="middle" font-size="10" fill="#145a32" font-weight="bold">BRC</text>
    <text x="280" y="458" text-anchor="middle" font-size="7" fill="#145a32" font-style="italic">(W21)</text>

    <!-- ===== SOUTH ZONE (bottom): Raspberries + Chives only ===== -->

    <!-- RB x3 (L=185-225, center line W=60) -->
    <path d="M100,512 Q96,508 140,508 L220,510 Q240,512 238,540 L236,612 Q234,626 216,624 L126,622 Q100,620 102,604 Z"
          fill="#922b21" opacity="0.2" stroke="#922b21" stroke-width="1.5"/>
    <text x="170" y="554" text-anchor="middle" font-size="12" fill="#78281f" font-weight="bold">RASPBERRY</text>
    <text x="170" y="572" text-anchor="middle" font-size="9" fill="#78281f">Autumn Bliss x3</text>
    <text x="170" y="590" text-anchor="middle" font-size="8" fill="#78281f">(center line, 25cm apart)</text>

    <!-- Chive west column -->
    <rect x="8" y="508" width="30" height="122" rx="6" fill="#7d3c98" opacity="0.12" stroke="#7d3c98" stroke-width="0.8"/>
    <text x="23" y="572" text-anchor="middle" font-size="7" fill="#7d3c98" font-weight="bold" transform="rotate(-90,23,572)">CHIVES (west)</text>

    <!-- Chive east column -->
    <rect x="286" y="508" width="30" height="122" rx="6" fill="#7d3c98" opacity="0.12" stroke="#7d3c98" stroke-width="0.8"/>
    <text x="301" y="572" text-anchor="middle" font-size="7" fill="#7d3c98" font-weight="bold" transform="rotate(-90,301,572)">CHIVES (east)</text>

    <!-- Dimensions -->
    <line x1="-16" y1="16" x2="-16" y2="637" stroke="#555" stroke-width="0.7"/>
    <line x1="-22" y1="16" x2="-10" y2="16" stroke="#555" stroke-width="0.7"/>
    <line x1="-22" y1="637" x2="-10" y2="637" stroke="#555" stroke-width="0.7"/>
    <text x="-22" y="330" text-anchor="middle" font-size="10" fill="#555" transform="rotate(-90,-22,330)">230cm</text>
    <line x1="0" y1="650" x2="324" y2="650" stroke="#555" stroke-width="0.7"/>
    <line x1="0" y1="646" x2="0" y2="654" stroke="#555" stroke-width="0.7"/>
    <line x1="324" y1="646" x2="324" y2="654" stroke="#555" stroke-width="0.7"/>
    <text x="162" y="665" text-anchor="middle" font-size="10" fill="#555">120cm</text>
  </g>

  <!-- ============================================================ -->
  <!-- BED B: HIS BED (150 x 60 cm)                                   -->
  <!-- Full sun all day, north at top                                 -->
  <!-- ============================================================ -->
  <g transform="translate(810, 670)">
    <text x="81" y="-8" text-anchor="middle" font-size="15" font-weight="bold" fill="#8b5e3c">BED B: "His Bed"</text>
    <text x="81" y="8" text-anchor="middle" font-size="10" fill="#8b5e3c">150 x 60 x 40 cm | Full sun &#9728;</text>

    <rect x="0" y="16" width="162" height="405" rx="5" fill="url(#corten)" stroke="#8b5e3c" stroke-width="3"/>
    <rect x="4" y="20" width="154" height="397" rx="3" fill="#fef9f0"/>

    <text x="81" y="14" text-anchor="middle" font-size="8" fill="#7f8c8d">NORTH</text>
    <text x="81" y="432" text-anchor="middle" font-size="8" fill="#7f8c8d">SOUTH</text>
    <text x="-6" y="225" text-anchor="middle" font-size="7" fill="#2980b9" transform="rotate(-90,-6,225)" font-style="italic">sensory edge</text>

    <!-- THY #3 north corner (5, 145 -> near top in SVG since north=top) -->
    <path d="M8,24 Q6,20 22,20 L36,22 Q44,26 42,40 L40,54 Q38,62 28,60 L14,58 Q6,56 8,44 Z"
          fill="#aed6f1" opacity="0.35" stroke="#5dade2" stroke-width="0.8"/>
    <text x="24" y="44" text-anchor="middle" font-size="6" fill="#1a5276">THY</text>

    <!-- VIO #2 + CAL #2 (north end) -->
    <path d="M42,24 Q38,20 68,20 L140,22 Q154,24 152,46 L150,88 Q148,100 130,98 L56,96 Q40,94 42,78 Z"
          fill="#d4a8e0" opacity="0.18" stroke="#a569bd" stroke-width="0.8"/>
    <text x="78" y="50" text-anchor="middle" font-size="7" fill="#7d3c98">VIO</text>
    <text x="112" y="50" text-anchor="middle" font-size="7" fill="#b7950b">CAL</text>
    <text x="96" y="68" text-anchor="middle" font-size="7" fill="#7f8c8d">flowers</text>

    <!-- THY #2 -->
    <path d="M8,106 Q6,100 22,100 L42,102 Q50,106 48,120 L46,138 Q44,146 34,144 L14,142 Q6,140 8,128 Z"
          fill="#aed6f1" opacity="0.35" stroke="#5dade2" stroke-width="0.8"/>
    <text x="28" y="126" text-anchor="middle" font-size="7" fill="#1a5276">THY</text>

    <!-- VIO #2 + CAL #2 -->
    <path d="M98,104 Q94,100 116,100 L152,102 Q158,106 156,122 L154,148 Q152,158 138,156 L106,154 Q96,152 98,140 Z"
          fill="#d4a8e0" opacity="0.18" stroke="#a569bd" stroke-width="0.8"/>
    <text x="112" y="126" text-anchor="middle" font-size="7" fill="#7d3c98">VIO</text>
    <text x="140" y="126" text-anchor="middle" font-size="7" fill="#b7950b">CAL</text>

    <!-- ST-O #2 -->
    <path d="M42,108 Q38,102 65,102 L102,104 Q116,106 114,128 L112,168 Q110,182 94,180 L56,178 Q40,176 42,158 Z"
          fill="#e74c3c" opacity="0.2" stroke="#e74c3c" stroke-width="1"/>
    <text x="78" y="142" text-anchor="middle" font-size="10" fill="#a93226" font-weight="bold">ST</text>
    <text x="78" y="156" text-anchor="middle" font-size="7" fill="#a93226">Ostara</text>

    <!-- LAM (west edge, center) -->
    <path d="M8,150 Q6,144 22,144 L52,146 Q64,148 62,175 L60,230 Q58,246 44,244 L16,242 Q6,240 8,224 Z"
          fill="#d5d8dc" opacity="0.35" stroke="#aab7b8" stroke-width="1"/>
    <text x="34" y="192" text-anchor="middle" font-size="9" fill="#555" font-weight="bold">LAM</text>
    <text x="34" y="206" text-anchor="middle" font-size="6" fill="#555">touch</text>

    <!-- ST-K (center) -->
    <path d="M54,186 Q50,180 78,180 L128,182 Q144,184 142,210 L140,260 Q138,278 118,276 L68,274 Q52,272 54,254 Z"
          fill="#e74c3c" opacity="0.2" stroke="#e74c3c" stroke-width="1"/>
    <text x="98" y="226" text-anchor="middle" font-size="10" fill="#a93226" font-weight="bold">ST</text>
    <text x="98" y="240" text-anchor="middle" font-size="7" fill="#a93226">Korona</text>

    <!-- NAS (east edge) -->
    <path d="M132,184 Q128,180 142,180 L152,182 Q158,186 156,215 L154,264 Q152,276 144,274 L136,272 Q128,270 130,252 Z"
          fill="#f39c12" opacity="0.2" stroke="#f39c12" stroke-width="1"/>
    <text x="143" y="230" text-anchor="middle" font-size="7" fill="#d4730d" font-weight="bold" transform="rotate(90,143,230)">NASTURTIUM</text>

    <!-- RAD slot -->
    <rect x="108" y="200" width="30" height="36" rx="5" fill="none" stroke="#c0392b" stroke-width="1" stroke-dasharray="4,2"/>
    <text x="123" y="222" text-anchor="middle" font-size="6" fill="#c0392b">RAD</text>

    <!-- SON row -->
    <path d="M118,146 Q114,142 132,142 L152,144 Q158,148 156,168 L154,182 Q152,190 142,188 L126,186 Q114,184 116,172 Z"
          fill="#f39c12" opacity="0.2" stroke="#f39c12" stroke-width="0.8"/>
    <text x="138" y="168" text-anchor="middle" font-size="6" fill="#b7780c" font-weight="bold">SON</text>

    <!-- ST-O #1 -->
    <path d="M42,280 Q38,274 68,274 L108,276 Q122,278 120,300 L118,342 Q116,356 98,354 L58,352 Q40,350 42,332 Z"
          fill="#e74c3c" opacity="0.2" stroke="#e74c3c" stroke-width="1"/>
    <text x="80" y="316" text-anchor="middle" font-size="10" fill="#a93226" font-weight="bold">ST</text>
    <text x="80" y="330" text-anchor="middle" font-size="7" fill="#a93226">Ostara</text>

    <!-- LE (west edge, lower) -->
    <path d="M8,252 Q6,246 22,246 L48,248 Q56,252 54,272 L52,310 Q50,324 38,322 L16,320 Q6,318 8,302 Z"
          fill="#abebc6" opacity="0.35" stroke="#58d68d" stroke-width="0.8"/>
    <text x="30" y="286" text-anchor="middle" font-size="8" fill="#1e8449" font-weight="bold">LE</text>
    <text x="30" y="300" text-anchor="middle" font-size="6" fill="#1e8449">crush</text>

    <!-- PEA SHOOTS (Phase 2, south end L=110-145, W=10-50) -->
    <!-- Shown with dashed border as Phase 2 temporary crop -->
    <rect x="24" y="300" width="108" height="94" rx="6" fill="#8bc34a" opacity="0.25" stroke="#558b2f" stroke-width="2" stroke-dasharray="6,3"/>
    <text x="78" y="340" text-anchor="middle" font-size="11" fill="#33691e" font-weight="bold">PEA</text>
    <text x="78" y="354" text-anchor="middle" font-size="8" fill="#33691e">SHOOTS</text>
    <text x="78" y="370" text-anchor="middle" font-size="7" fill="#558b2f" font-style="italic">Phase 2 (W16)</text>
    <text x="78" y="382" text-anchor="middle" font-size="6" fill="#558b2f" font-style="italic">&#8594; sunflowers W18</text>

    <!-- SUN cluster label (Phase 3, replaces pea shoots) -->
    <text x="78" y="408" text-anchor="middle" font-size="7" fill="#7d6608" font-style="italic">SUN replaces here W18</text>

    <!-- THY #1 south corner -->
    <path d="M8,370 Q6,366 18,366 L28,368 Q36,372 34,390 L32,410 Q30,418 22,416 L12,414 Q6,412 8,400 Z"
          fill="#aed6f1" opacity="0.35" stroke="#5dade2" stroke-width="0.8"/>
    <text x="20" y="396" text-anchor="middle" font-size="6" fill="#1a5276">THY</text>

    <!-- Mint pot -->
    <rect x="170" y="200" width="48" height="48" rx="24" fill="#85929e" opacity="0.12" stroke="#7f8c8d" stroke-width="1.5" stroke-dasharray="4,3"/>
    <text x="194" y="222" text-anchor="middle" font-size="8" fill="#2c3e50" font-weight="bold">MINT</text>
    <text x="194" y="234" text-anchor="middle" font-size="6" fill="#7f8c8d">(pot outside)</text>

    <!-- Dimensions -->
    <line x1="-16" y1="16" x2="-16" y2="421" stroke="#555" stroke-width="0.7"/>
    <line x1="-22" y1="16" x2="-10" y2="16" stroke="#555" stroke-width="0.7"/>
    <line x1="-22" y1="421" x2="-10" y2="421" stroke="#555" stroke-width="0.7"/>
    <text x="-22" y="222" text-anchor="middle" font-size="10" fill="#555" transform="rotate(-90,-22,222)">150cm</text>
    <line x1="0" y1="433" x2="162" y2="433" stroke="#555" stroke-width="0.7"/>
    <line x1="0" y1="429" x2="0" y2="437" stroke="#555" stroke-width="0.7"/>
    <line x1="162" y1="429" x2="162" y2="437" stroke="#555" stroke-width="0.7"/>
    <text x="81" y="448" text-anchor="middle" font-size="10" fill="#555">60cm</text>
  </g>

  <!-- ============================================================ -->
  <!-- LEGEND                                                         -->
  <!-- ============================================================ -->
  <g transform="translate(55, 1200)">
    <rect x="-10" y="-10" width="1100" height="160" rx="6" fill="#fff" stroke="#bdc3c7" stroke-width="1"/>
    <text x="550" y="12" text-anchor="middle" font-size="13" font-weight="bold" fill="#2c3e50">Plant Legend</text>

    <rect x="15" y="28" width="24" height="16" rx="6" fill="#e74c3c" opacity="0.25" stroke="#e74c3c" stroke-width="1"/>
    <text x="48" y="41" font-size="10" fill="#333">Tomato / Strawberry</text>
    <rect x="195" y="28" width="24" height="16" rx="6" fill="#27ae60" opacity="0.3" stroke="#27ae60" stroke-width="1"/>
    <text x="228" y="41" font-size="10" fill="#333">Cucumber / Basil</text>
    <rect x="375" y="28" width="24" height="16" rx="6" fill="#e67e22" opacity="0.25" stroke="#e67e22" stroke-width="1"/>
    <text x="408" y="41" font-size="10" fill="#333">Pepper</text>
    <rect x="495" y="28" width="24" height="16" rx="6" fill="#795548" opacity="0.3" stroke="#795548" stroke-width="1"/>
    <text x="528" y="41" font-size="10" fill="#333">Bush Beans</text>
    <rect x="645" y="28" width="24" height="16" rx="6" fill="#922b21" opacity="0.2" stroke="#922b21" stroke-width="1"/>
    <text x="678" y="41" font-size="10" fill="#333">Raspberry</text>

    <rect x="15" y="56" width="24" height="16" rx="6" fill="#1a5276" opacity="0.3" stroke="#1a5276" stroke-width="1"/>
    <text x="48" y="69" font-size="10" fill="#333">Leek</text>
    <rect x="115" y="56" width="24" height="16" rx="6" fill="#196f3d" opacity="0.25" stroke="#196f3d" stroke-width="1"/>
    <text x="148" y="69" font-size="10" fill="#333">Broccoli</text>
    <rect x="245" y="56" width="24" height="16" rx="6" fill="#8e44ad" opacity="0.25" stroke="#8e44ad" stroke-width="1"/>
    <text x="278" y="69" font-size="10" fill="#333">Borage</text>
    <rect x="365" y="56" width="24" height="16" rx="6" fill="#1abc9c" opacity="0.3" stroke="#1abc9c" stroke-width="1"/>
    <text x="398" y="69" font-size="10" fill="#333">Dill</text>
    <rect x="465" y="56" width="24" height="16" rx="6" fill="#f1c40f" opacity="0.3" stroke="#f1c40f" stroke-width="1"/>
    <text x="498" y="69" font-size="10" fill="#333">Sunflower</text>
    <rect x="605" y="56" width="24" height="16" rx="6" fill="#f39c12" opacity="0.25" stroke="#f39c12" stroke-width="1"/>
    <text x="638" y="69" font-size="10" fill="#333">Nasturtium / Spring Onion</text>

    <rect x="15" y="84" width="24" height="16" rx="6" fill="#d5d8dc" opacity="0.35" stroke="#aab7b8" stroke-width="1"/>
    <text x="48" y="97" font-size="10" fill="#333">Lamb's ear</text>
    <rect x="155" y="84" width="24" height="16" rx="6" fill="#abebc6" opacity="0.35" stroke="#58d68d" stroke-width="1"/>
    <text x="188" y="97" font-size="10" fill="#333">Lemon balm</text>
    <rect x="305" y="84" width="24" height="16" rx="6" fill="#aed6f1" opacity="0.35" stroke="#5dade2" stroke-width="1"/>
    <text x="338" y="97" font-size="10" fill="#333">Thyme</text>
    <rect x="415" y="84" width="24" height="16" rx="6" fill="#a569bd" opacity="0.2" stroke="#a569bd" stroke-width="1"/>
    <text x="448" y="97" font-size="10" fill="#333">Viola</text>
    <rect x="525" y="84" width="24" height="16" rx="6" fill="#f5b041" opacity="0.2" stroke="#f5b041" stroke-width="1"/>
    <text x="558" y="97" font-size="10" fill="#333">Calendula</text>
    <rect x="665" y="84" width="24" height="16" rx="6" fill="#7d3c98" opacity="0.15" stroke="#7d3c98" stroke-width="1"/>
    <text x="698" y="97" font-size="10" fill="#333">Chives</text>

    <!-- Phase 2 indicator -->
    <rect x="15" y="108" width="24" height="16" rx="6" fill="#8bc34a" opacity="0.25" stroke="#558b2f" stroke-width="2" stroke-dasharray="5,3"/>
    <text x="48" y="121" font-size="10" fill="#333" font-weight="bold">Peas / Pea shoots / Kale (Phase 2 temporary -- dashed border)</text>

    <rect x="15" y="130" width="24" height="10" rx="3" fill="#27ae60" opacity="0.1" stroke="#27ae60" stroke-width="2" stroke-dasharray="4,2"/>
    <text x="48" y="141" font-size="10" fill="#333">Lean-to trellis (east, outward)</text>
    <line x1="135" y1="134" x2="159" y2="134" stroke="#2980b9" stroke-width="2" stroke-dasharray="4,3"/>
    <text x="168" y="141" font-size="10" fill="#333">Reservoir dam</text>
    <rect x="285" y="130" width="24" height="10" rx="3" fill="none" stroke="#c0392b" stroke-width="0.8" stroke-dasharray="3,2"/>
    <text x="318" y="141" font-size="10" fill="#333">Succession slot</text>
  </g>

</svg>
