<svg xmlns="http://www.w3.org/2000/svg" viewBox="0 0 1100 1000" font-family="'Helvetica Neue', Arial, sans-serif">

  <rect width="1100" height="1000" fill="#f7f4ef"/>

  <text x="550" y="30" text-anchor="middle" font-size="20" font-weight="bold" fill="#2c3e50">Bed A Reservoir &amp; Soil Layering System</text>
  <text x="550" y="48" text-anchor="middle" font-size="11" fill="#7f8c8d">Longitudinal cross-section through Bed A (230cm long x 40cm tall) | Not to scale vertically</text>

  <!-- ============================================================ -->
  <!-- MAIN CROSS-SECTION: Side view of full bed length               -->
  <!-- Left = North (L=0, fence, full sun)                            -->
  <!-- Right = South (L=230, house, shade)                            -->
  <!-- ============================================================ -->
  <g transform="translate(50, 160)">

    <!-- Zone labels above, well spaced -->
    <text x="220" y="-85" text-anchor="middle" font-size="13" font-weight="bold" fill="#8b5e3c">NORTH ZONE (L=0-120)</text>
    <text x="220" y="-72" text-anchor="middle" font-size="9" fill="#8b5e3c">Warm crops | Full sun | Reservoir</text>

    <text x="530" y="-85" text-anchor="middle" font-size="13" font-weight="bold" fill="#1e8449">MIDDLE ZONE (L=120-170)</text>
    <text x="530" y="-72" text-anchor="middle" font-size="9" fill="#1e8449">Herbs, salad | Afternoon shade</text>

    <text x="730" y="-85" text-anchor="middle" font-size="13" font-weight="bold" fill="#922b21">SOUTH ZONE (L=180-230)</text>
    <text x="730" y="-72" text-anchor="middle" font-size="9" fill="#922b21">Raspberries | Shade-tolerant</text>

    <!-- N/S compass -->
    <text x="5" y="-100" font-size="10" fill="#c0392b" font-weight="bold">N (fence)</text>
    <text x="800" y="-100" font-size="10" fill="#7f8c8d" font-weight="bold">S (house)</text>

    <!-- Sun indicators -->
    <text x="220" y="-100" text-anchor="middle" font-size="11" fill="#f39c12">&#9728; full sun</text>
    <text x="730" y="-100" text-anchor="middle" font-size="10" fill="#7f8c8d">&#9680; shade ~14:00</text>

    <!-- ===== BED WALLS (corten steel, 40cm tall) ===== -->
    <rect x="0" y="0" width="10" height="280" fill="#b5703c" rx="1"/>
    <rect x="840" y="0" width="10" height="280" fill="#b5703c" rx="1"/>

    <!-- ===== TOP LAYER: Hojbedsmuld (15-20cm), continuous ===== -->
    <rect x="10" y="0" width="830" height="115" fill="#6d4c41" opacity="0.45" rx="2"/>
    <!-- Plant root lines -->
    <g stroke="#27ae60" stroke-width="1" opacity="0.4">
      <line x1="80" y1="0" x2="80" y2="60"/>
      <line x1="75" y1="45" x2="90" y2="55"/>
      <line x1="200" y1="0" x2="200" y2="75"/>
      <line x1="195" y1="55" x2="210" y2="65"/>
      <line x1="350" y1="0" x2="350" y2="55"/>
      <line x1="500" y1="0" x2="500" y2="50"/>
      <line x1="650" y1="0" x2="650" y2="40"/>
      <line x1="750" y1="0" x2="750" y2="70"/>
      <line x1="745" y1="50" x2="760" y2="60"/>
    </g>
    <!-- Plant icons on top -->
    <text x="80" y="-40" text-anchor="middle" font-size="14" fill="#27ae60">&#127807;</text>
    <text x="200" y="-40" text-anchor="middle" font-size="16" fill="#e74c3c">&#127813;</text>
    <text x="350" y="-40" text-anchor="middle" font-size="14" fill="#e67e22">&#127798;</text>
    <text x="500" y="-40" text-anchor="middle" font-size="12" fill="#82e0aa">&#127807;</text>
    <text x="650" y="-40" text-anchor="middle" font-size="12" fill="#1a5276">&#127807;</text>
    <text x="750" y="-40" text-anchor="middle" font-size="16" fill="#922b21">&#127815;</text>

    <text x="80" y="-50" text-anchor="middle" font-size="8" fill="#555">CUC</text>
    <text x="200" y="-50" text-anchor="middle" font-size="8" fill="#555">TOM</text>
    <text x="350" y="-50" text-anchor="middle" font-size="8" fill="#555">PEP</text>
    <text x="500" y="-50" text-anchor="middle" font-size="8" fill="#555">lettuce</text>
    <text x="650" y="-50" text-anchor="middle" font-size="8" fill="#555">leeks</text>
    <text x="750" y="-50" text-anchor="middle" font-size="8" fill="#555">raspberry</text>

    <!-- Layer label -->
    <rect x="860" y="30" width="150" height="50" rx="4" fill="#6d4c41" opacity="0.3"/>
    <text x="935" y="52" text-anchor="middle" font-size="10" fill="#3e2723" font-weight="bold">Hojbedsmuld</text>
    <text x="935" y="66" text-anchor="middle" font-size="9" fill="#3e2723">15-20cm growing soil</text>

    <!-- Height annotation -->
    <line x1="855" y1="0" x2="855" y2="115" stroke="#555" stroke-width="0.5" stroke-dasharray="2,2"/>
    <text x="853" y="60" text-anchor="end" font-size="8" fill="#555">15-20cm</text>

    <!-- ===== MIDDLE LAYER: Garden Waste (10-15cm), continuous ===== -->
    <rect x="10" y="115" width="830" height="75" fill="#8d6e53" opacity="0.35" rx="2"/>
    <!-- Branch/twig texture -->
    <g stroke="#5d4037" stroke-width="1" opacity="0.3">
      <path d="M40,135 Q65,130 90,135 Q115,140 140,135" fill="none"/>
      <path d="M180,145 Q210,140 240,145 Q270,150 300,145" fill="none"/>
      <path d="M350,138 Q380,133 410,138" fill="none"/>
      <path d="M480,142 Q510,137 540,142 Q570,147 600,142" fill="none"/>
      <path d="M650,135 Q680,130 710,135 Q740,140 770,135" fill="none"/>
      <path d="M60,155 Q95,150 130,155" fill="none"/>
      <path d="M250,155 Q285,150 320,155" fill="none"/>
      <path d="M500,155 Q535,150 570,155" fill="none"/>
      <path d="M700,150 Q730,145 760,150" fill="none"/>
    </g>

    <rect x="860" y="115" width="150" height="50" rx="4" fill="#8d6e53" opacity="0.2"/>
    <text x="935" y="137" text-anchor="middle" font-size="10" fill="#4e342e" font-weight="bold">Garden Waste</text>
    <text x="935" y="151" text-anchor="middle" font-size="9" fill="#4e342e">10-15cm branches/leaves</text>

    <line x1="855" y1="115" x2="855" y2="190" stroke="#555" stroke-width="0.5" stroke-dasharray="2,2"/>
    <text x="853" y="155" text-anchor="end" font-size="8" fill="#555">10-15cm</text>

    <!-- ===== GEOTEXTILE LINE (ukrudtsdug), continuous ===== -->
    <line x1="10" y1="192" x2="840" y2="192" stroke="#78909c" stroke-width="2.5" stroke-dasharray="6,3"/>

    <text x="935" y="197" text-anchor="middle" font-size="9" fill="#546e7a" font-weight="bold">Ukrudtsdug</text>
    <text x="935" y="209" text-anchor="middle" font-size="8" fill="#546e7a">(geotextile)</text>

    <!-- ===== BOTTOM LAYER: SPLIT between reservoir and standard ===== -->

    <!-- RESERVOIR ZONE (north, L=0-120, left side) -->
    <!-- Pond liner bathtub shape -->
    <path d="M12,280 L12,195 L440,195 L440,280"
          fill="none" stroke="#1a237e" stroke-width="3" opacity="0.7"/>
    <!-- Liner dam at L=120 boundary -->
    <path d="M440,195 L440,280" stroke="#1a237e" stroke-width="3" opacity="0.7"/>
    <rect x="435" y="195" width="12" height="85" fill="#1a237e" opacity="0.25" rx="1"/>

    <!-- Water fill (inside liner) -->
    <rect x="14" y="215" width="424" height="63" fill="#3498db" opacity="0.12" rx="2"/>

    <!-- Gravel texture in reservoir zone -->
    <g fill="#90a4ae" opacity="0.4">
      <circle cx="35" cy="240" r="4"/><circle cx="55" cy="250" r="3.5"/><circle cx="80" cy="238" r="4.5"/>
      <circle cx="108" cy="252" r="3.5"/><circle cx="130" cy="240" r="4"/><circle cx="155" cy="248" r="3"/>
      <circle cx="180" cy="238" r="4.5"/><circle cx="205" cy="252" r="3.5"/><circle cx="230" cy="242" r="4"/>
      <circle cx="258" cy="250" r="3"/><circle cx="280" cy="238" r="4.5"/><circle cx="305" cy="248" r="3.5"/>
      <circle cx="330" cy="240" r="4"/><circle cx="355" cy="252" r="3.5"/><circle cx="380" cy="242" r="4"/>
      <circle cx="405" cy="248" r="3"/><circle cx="425" cy="240" r="3.5"/>
      <!-- Lower row -->
      <circle cx="45" cy="265" r="3.5"/><circle cx="75" cy="270" r="4"/><circle cx="110" cy="262" r="3"/>
      <circle cx="145" cy="270" r="4"/><circle cx="175" cy="265" r="3.5"/><circle cx="210" cy="272" r="3"/>
      <circle cx="245" cy="264" r="4"/><circle cx="275" cy="270" r="3.5"/><circle cx="310" cy="262" r="3"/>
      <circle cx="345" cy="270" r="4"/><circle cx="380" cy="266" r="3.5"/><circle cx="415" cy="272" r="3"/>
    </g>

    <!-- PVC pipes (6 channels, cross-section circles) -->
    <g>
      <circle cx="50" cy="255" r="14" fill="#b0bec5" stroke="#78909c" stroke-width="2"/>
      <text x="50" y="259" text-anchor="middle" font-size="7" fill="#37474f" font-weight="bold">PVC</text>
      <circle cx="125" cy="255" r="14" fill="#b0bec5" stroke="#78909c" stroke-width="2"/>
      <text x="125" y="259" text-anchor="middle" font-size="7" fill="#37474f" font-weight="bold">PVC</text>
      <circle cx="200" cy="255" r="14" fill="#b0bec5" stroke="#78909c" stroke-width="2"/>
      <text x="200" y="259" text-anchor="middle" font-size="7" fill="#37474f" font-weight="bold">PVC</text>
      <circle cx="275" cy="255" r="14" fill="#b0bec5" stroke="#78909c" stroke-width="2"/>
      <text x="275" y="259" text-anchor="middle" font-size="7" fill="#37474f" font-weight="bold">PVC</text>
      <circle cx="350" cy="255" r="14" fill="#b0bec5" stroke="#78909c" stroke-width="2"/>
      <text x="350" y="259" text-anchor="middle" font-size="7" fill="#37474f" font-weight="bold">PVC</text>
      <circle cx="420" cy="255" r="14" fill="#b0bec5" stroke="#78909c" stroke-width="2"/>
      <text x="420" y="259" text-anchor="middle" font-size="7" fill="#37474f" font-weight="bold">PVC</text>
    </g>

    <!-- Perforated holes on pipes (showing water distribution) -->
    <g fill="#3498db" opacity="0.5">
      <circle cx="50" cy="241" r="2"/><circle cx="125" cy="241" r="2"/><circle cx="200" cy="241" r="2"/>
      <circle cx="275" cy="241" r="2"/><circle cx="350" cy="241" r="2"/><circle cx="420" cy="241" r="2"/>
    </g>

    <!-- Water level line -->
    <line x1="16" y1="220" x2="436" y2="220" stroke="#3498db" stroke-width="1" stroke-dasharray="4,2" opacity="0.6"/>
    <text x="228" y="216" text-anchor="middle" font-size="8" fill="#2980b9" font-style="italic">water level</text>

    <!-- Wicking arrows (water moving upward) -->
    <g stroke="#3498db" stroke-width="1" opacity="0.35">
      <line x1="80" y1="200" x2="80" y2="185" marker-end="url(#wickarrow)"/>
      <line x1="200" y1="200" x2="200" y2="185"/>
      <line x1="320" y1="200" x2="320" y2="185"/>
    </g>
    <text x="200" y="208" text-anchor="middle" font-size="7" fill="#2980b9">&#8593; wicks upward &#8593;</text>

    <!-- STANDARD DRAINAGE ZONE (middle + south, L=120-230, right side) -->
    <!-- Regular gravel - no liner -->
    <g fill="#90a4ae" opacity="0.3">
      <circle cx="470" cy="225" r="4.5"/><circle cx="500" cy="235" r="4"/><circle cx="530" cy="225" r="3.5"/>
      <circle cx="560" cy="238" r="4"/><circle cx="590" cy="228" r="4.5"/><circle cx="620" cy="240" r="3.5"/>
      <circle cx="650" cy="225" r="4"/><circle cx="680" cy="235" r="4.5"/><circle cx="710" cy="228" r="3.5"/>
      <circle cx="740" cy="238" r="4"/><circle cx="770" cy="225" r="4.5"/><circle cx="800" cy="235" r="3.5"/>
      <circle cx="825" cy="228" r="4"/>
      <circle cx="485" cy="255" r="3.5"/><circle cx="520" cy="260" r="4"/><circle cx="555" cy="252" r="3"/>
      <circle cx="590" cy="262" r="4"/><circle cx="625" cy="255" r="3.5"/><circle cx="660" cy="260" r="4"/>
      <circle cx="695" cy="252" r="3.5"/><circle cx="730" cy="262" r="3"/><circle cx="765" cy="255" r="4"/>
      <circle cx="800" cy="260" r="3.5"/><circle cx="830" cy="255" r="3"/>
    </g>

    <!-- Drainage arrows (water draining down through grass) -->
    <g stroke="#7f8c8d" stroke-width="0.8" opacity="0.4" stroke-dasharray="3,3">
      <line x1="550" y1="270" x2="550" y2="295"/>
      <line x1="650" y1="270" x2="650" y2="295"/>
      <line x1="750" y1="270" x2="750" y2="295"/>
    </g>
    <text x="650" y="265" text-anchor="middle" font-size="7" fill="#7f8c8d">&#8595; drains to grass &#8595;</text>

    <!-- Reservoir label -->
    <rect x="860" y="220" width="150" height="60" rx="4" fill="#3498db" opacity="0.1" stroke="#3498db" stroke-width="0.8"/>
    <text x="935" y="240" text-anchor="middle" font-size="9" fill="#1565c0" font-weight="bold">RESERVOIR</text>
    <text x="935" y="252" text-anchor="middle" font-size="8" fill="#1565c0">Gravel + 6 PVC pipes</text>
    <text x="935" y="264" text-anchor="middle" font-size="8" fill="#1565c0">8cm, inside pond liner</text>

    <!-- Standard drainage label -->
    <rect x="860" y="285" width="150" height="40" rx="4" fill="#90a4ae" opacity="0.1" stroke="#90a4ae" stroke-width="0.8"/>
    <text x="935" y="302" text-anchor="middle" font-size="9" fill="#546e7a" font-weight="bold">DRAINAGE GRAVEL</text>
    <text x="935" y="314" text-anchor="middle" font-size="8" fill="#546e7a">8-10cm, free-draining</text>

    <!-- Height annotations -->
    <line x1="855" y1="195" x2="855" y2="280" stroke="#555" stroke-width="0.5" stroke-dasharray="2,2"/>
    <text x="853" y="240" text-anchor="end" font-size="8" fill="#555">8-10cm</text>

    <!-- Ground level -->
    <rect x="0" y="280" width="850" height="22" fill="#a3c77e" opacity="0.4" rx="2"/>
    <text x="425" y="296" text-anchor="middle" font-size="9" fill="#558b2f">Ground (grass, open bottom)</text>

    <!-- Mole mesh -->
    <line x1="10" y1="279" x2="840" y2="279" stroke="#795548" stroke-width="1.5" stroke-dasharray="3,2"/>
    <text x="935" y="283" text-anchor="middle" font-size="8" fill="#795548">Mole mesh</text>

    <!-- Fill tube -->
    <rect x="15" y="-55" width="16" height="250" rx="3" fill="#b0bec5" stroke="#78909c" stroke-width="1.5"/>
    <text x="50" y="-48" font-size="9" fill="#37474f" font-weight="bold">FILL TUBE</text>
    <text x="50" y="-36" font-size="8" fill="#2980b9">pour water here &#8595;</text>

    <!-- Dam label -->
    <text x="447" y="230" font-size="8" fill="#1a237e" font-weight="bold" transform="rotate(90,447,230)">LINER DAM</text>

    <!-- Pond liner label -->
    <text x="228" y="278" text-anchor="middle" font-size="9" fill="#1a237e" font-weight="bold">POND LINER (waterproof bathtub)</text>

    <!-- Zone boundary lines (dashed vertical) -->
    <line x1="445" y1="-5" x2="445" y2="280" stroke="#8b5e3c" stroke-width="1" stroke-dasharray="5,4" opacity="0.5"/>
    <line x1="610" y1="-5" x2="610" y2="280" stroke="#8b5e3c" stroke-width="1" stroke-dasharray="5,4" opacity="0.3"/>
    <line x1="660" y1="-5" x2="660" y2="280" stroke="#8b5e3c" stroke-width="1" stroke-dasharray="5,4" opacity="0.3"/>

    <text x="445" y="-8" text-anchor="middle" font-size="7" fill="#8b5e3c">L=120</text>
    <text x="610" y="-8" text-anchor="middle" font-size="7" fill="#8b5e3c">L=170</text>
    <text x="660" y="-8" text-anchor="middle" font-size="7" fill="#8b5e3c">L=180</text>

    <!-- Buffer label -->
    <text x="635" y="140" text-anchor="middle" font-size="7" fill="#8b7355" transform="rotate(90,635,140)" font-style="italic">buffer</text>

    <!-- Total height annotation (left side) -->
    <line x1="-20" y1="0" x2="-20" y2="280" stroke="#555" stroke-width="0.8"/>
    <line x1="-26" y1="0" x2="-14" y2="0" stroke="#555" stroke-width="0.8"/>
    <line x1="-26" y1="280" x2="-14" y2="280" stroke="#555" stroke-width="0.8"/>
    <text x="-28" y="145" text-anchor="middle" font-size="10" fill="#555" transform="rotate(-90,-28,145)">40cm total height</text>

  </g>

  <!-- ============================================================ -->
  <!-- DETAIL: Reservoir manifold top-down view                       -->
  <!-- ============================================================ -->
  <g transform="translate(50, 530)">
    <rect x="-10" y="-10" width="480" height="300" rx="6" fill="#fff" stroke="#bdc3c7" stroke-width="1"/>
    <text x="230" y="10" text-anchor="middle" font-size="13" font-weight="bold" fill="#2c3e50">Reservoir Manifold (top-down)</text>
    <text x="230" y="26" text-anchor="middle" font-size="9" fill="#7f8c8d">6-channel header design | Rotated 90 degrees</text>

    <!-- Liner outline -->
    <rect x="20" y="40" width="420" height="230" rx="4" fill="#3498db" opacity="0.06" stroke="#1a237e" stroke-width="2"/>
    <text x="230" y="58" text-anchor="middle" font-size="8" fill="#1a237e">POND LINER (120 x 120cm)</text>

    <!-- Header pipe (runs across 120cm width, east-west) -->
    <rect x="30" y="50" width="400" height="14" rx="7" fill="#b0bec5" stroke="#78909c" stroke-width="1.5"/>
    <text x="230" y="61" text-anchor="middle" font-size="8" fill="#37474f" font-weight="bold">HEADER PIPE (110cm)</text>

    <!-- 6 channel pipes (run along 100cm length, north-south) -->
    <rect x="50" y="64" width="12" height="190" rx="6" fill="#b0bec5" stroke="#78909c" stroke-width="1"/>
    <rect x="120" y="64" width="12" height="190" rx="6" fill="#b0bec5" stroke="#78909c" stroke-width="1"/>
    <rect x="190" y="64" width="12" height="190" rx="6" fill="#b0bec5" stroke="#78909c" stroke-width="1"/>
    <rect x="260" y="64" width="12" height="190" rx="6" fill="#b0bec5" stroke="#78909c" stroke-width="1"/>
    <rect x="330" y="64" width="12" height="190" rx="6" fill="#b0bec5" stroke="#78909c" stroke-width="1"/>
    <rect x="400" y="64" width="12" height="190" rx="6" fill="#b0bec5" stroke="#78909c" stroke-width="1"/>

    <!-- Channel labels -->
    <text x="56" y="165" text-anchor="middle" font-size="7" fill="#455a64" transform="rotate(-90,56,165)">channel 1</text>
    <text x="126" y="165" text-anchor="middle" font-size="7" fill="#455a64" transform="rotate(-90,126,165)">channel 2</text>
    <text x="196" y="165" text-anchor="middle" font-size="7" fill="#455a64" transform="rotate(-90,196,165)">channel 3</text>
    <text x="266" y="165" text-anchor="middle" font-size="7" fill="#455a64" transform="rotate(-90,266,165)">channel 4</text>
    <text x="336" y="165" text-anchor="middle" font-size="7" fill="#455a64" transform="rotate(-90,336,165)">channel 5</text>
    <text x="406" y="165" text-anchor="middle" font-size="7" fill="#455a64" transform="rotate(-90,406,165)">channel 6</text>

    <!-- Perforation dots on channels -->
    <g fill="#3498db" opacity="0.5">
      <circle cx="48" cy="90" r="2"/><circle cx="48" cy="120" r="2"/><circle cx="48" cy="150" r="2"/><circle cx="48" cy="180" r="2"/><circle cx="48" cy="210" r="2"/><circle cx="48" cy="240" r="2"/>
      <circle cx="118" cy="90" r="2"/><circle cx="118" cy="120" r="2"/><circle cx="118" cy="150" r="2"/><circle cx="118" cy="180" r="2"/><circle cx="118" cy="210" r="2"/><circle cx="118" cy="240" r="2"/>
      <circle cx="188" cy="90" r="2"/><circle cx="188" cy="120" r="2"/><circle cx="188" cy="150" r="2"/><circle cx="188" cy="180" r="2"/><circle cx="188" cy="210" r="2"/><circle cx="188" cy="240" r="2"/>
    </g>

    <!-- End caps -->
    <g fill="#78909c">
      <circle cx="56" cy="254" r="7"/><circle cx="126" cy="254" r="7"/><circle cx="196" cy="254" r="7"/>
      <circle cx="266" cy="254" r="7"/><circle cx="336" cy="254" r="7"/><circle cx="406" cy="254" r="7"/>
    </g>
    <text x="230" y="272" text-anchor="middle" font-size="8" fill="#455a64">end caps (capped)</text>

    <!-- Fill tube -->
    <rect x="430" y="40" width="14" height="14" rx="7" fill="#78909c" stroke="#37474f" stroke-width="1.5"/>
    <line x1="437" y1="36" x2="437" y2="22" stroke="#78909c" stroke-width="3"/>
    <text x="437" y="18" text-anchor="middle" font-size="8" fill="#37474f" font-weight="bold">FILL TUBE &#8593;</text>

    <!-- Water flow arrows -->
    <g stroke="#3498db" stroke-width="1" opacity="0.4">
      <line x1="230" y1="56" x2="56" y2="70"/>
      <line x1="230" y1="56" x2="126" y2="70"/>
      <line x1="230" y1="56" x2="196" y2="70"/>
      <line x1="230" y1="56" x2="266" y2="70"/>
      <line x1="230" y1="56" x2="336" y2="70"/>
      <line x1="230" y1="56" x2="406" y2="70"/>
    </g>

    <!-- Dimension annotations -->
    <line x1="20" y1="280" x2="440" y2="280" stroke="#555" stroke-width="0.6"/>
    <text x="230" y="292" text-anchor="middle" font-size="9" fill="#555">120cm (bed width)</text>
    <line x1="450" y1="50" x2="450" y2="260" stroke="#555" stroke-width="0.6"/>
    <text x="460" y="160" font-size="9" fill="#555" transform="rotate(90,460,160)">~100cm (channels)</text>
  </g>

  <!-- ============================================================ -->
  <!-- LEGEND: Layer key                                              -->
  <!-- ============================================================ -->
  <g transform="translate(580, 530)">
    <rect x="-10" y="-10" width="430" height="300" rx="6" fill="#fff" stroke="#bdc3c7" stroke-width="1"/>
    <text x="205" y="12" text-anchor="middle" font-size="13" font-weight="bold" fill="#2c3e50">Layer Key</text>

    <!-- Layer swatches -->
    <rect x="15" y="30" width="40" height="20" rx="4" fill="#6d4c41" opacity="0.45"/>
    <text x="65" y="44" font-size="10" fill="#333" font-weight="bold">Hojbedsmuld</text>
    <text x="65" y="56" font-size="9" fill="#555">Top growing layer. Roots live here. 15-20cm.</text>

    <rect x="15" y="70" width="40" height="20" rx="4" fill="#8d6e53" opacity="0.35"/>
    <text x="65" y="84" font-size="10" fill="#333" font-weight="bold">Garden Waste</text>
    <text x="65" y="96" font-size="9" fill="#555">Branches, leaves, clippings. Slow-release nutrients. 10-15cm.</text>

    <line x1="15" y1="118" x2="55" y2="118" stroke="#78909c" stroke-width="2.5" stroke-dasharray="6,3"/>
    <text x="65" y="122" font-size="10" fill="#333" font-weight="bold">Ukrudtsdug (geotextile)</text>
    <text x="65" y="134" font-size="9" fill="#555">Blocks soil from entering gravel. Lets water wick up.</text>

    <rect x="15" y="148" width="40" height="20" rx="4" fill="#3498db" opacity="0.12" stroke="#3498db" stroke-width="1"/>
    <text x="65" y="162" font-size="10" fill="#333" font-weight="bold">Reservoir (north zone only)</text>
    <text x="65" y="174" font-size="9" fill="#555">Pond liner + gravel + 6 PVC pipes. Holds 25-35L water. 8cm.</text>

    <rect x="15" y="188" width="40" height="20" rx="4" fill="#90a4ae" opacity="0.2" stroke="#90a4ae" stroke-width="1"/>
    <text x="65" y="202" font-size="10" fill="#333" font-weight="bold">Drainage Gravel (middle + south)</text>
    <text x="65" y="214" font-size="9" fill="#555">Coarse 16-32mm gravel. Free-draining to grass below. 8-10cm.</text>

    <path d="M15,235 L55,235 L55,255 L15,255 Z" fill="none" stroke="#1a237e" stroke-width="2.5" opacity="0.7"/>
    <text x="65" y="242" font-size="10" fill="#333" font-weight="bold">Pond Liner (EPDM)</text>
    <text x="65" y="254" font-size="9" fill="#555">Waterproof bathtub. Only in north zone. Dam at L=120.</text>

    <circle cx="35" cy="275" r="10" fill="#b0bec5" stroke="#78909c" stroke-width="1.5"/>
    <text x="65" y="279" font-size="10" fill="#333" font-weight="bold">PVC Pipe (50mm, perforated top)</text>

  </g>

</svg>
